Coordinates
version=1
nRows=29
nColumns=22
inDegrees=yes

Units are S.I. units (second, meters, Newtons, ...)
If the header above contains a line with 'inDegrees', this indicates whether rotational values are in degrees (yes) or radians (no).

endheader
time	pelvis_tilt	pelvis_list	pelvis_rotation	pelvis_tx	pelvis_ty	pelvis_tz	hip_flexion_r	hip_adduction_r	hip_rotation_r	knee_angle_r	ankle_angle_r	subtalar_angle_r	hip_flexion_l	hip_adduction_l	hip_rotation_l	knee_angle_l	ankle_angle_l	subtalar_angle_l	lumbar_extension	lumbar_bending	lumbar_rotation
      0.01000000	     -1.62162997	     -5.29609808	     -0.42643328	      1.06877978	      1.01176470	      0.17525268	      0.97217353	      3.11861212	     -2.81185742	    -11.77040825	      9.05167406	      1.21603409	     -1.69724770	     -8.76811198	    -14.27987059	     -9.52539563	     11.78187166	      0.86400000	     -1.91866672	      1.85238793	     -1.10881816
      0.02000000	     -1.62005768	     -5.29516846	     -0.42241287	      1.06871490	      1.01177180	      0.17525404	      0.97216678	      3.11687463	     -2.80949140	    -11.76668850	      9.05118422	      1.21760846	     -1.69657116	     -8.76792881	    -14.28248604	     -9.52068025	     11.78058952	      0.86592466	     -1.92335505	      1.85855799	     -1.11168072
      0.03000000	     -1.58916238	     -5.30981108	     -0.41663713	      1.06868868	      1.01183110	      0.17526710	      0.92330237	      3.13358859	     -2.79622516	    -11.73309929	      9.03384206	      1.25615102	     -1.74401538	     -8.78247161	    -14.28420739	     -9.48779943	     11.75252683	      0.90236786	     -1.95462121	      1.88226815	     -1.12641776
      0.04000000	     -1.58818497	     -5.30802002	     -0.41625702	      1.06859796	      1.01183800	      0.17528090	      0.92674670	      3.13115823	     -2.79569825	    -11.73131547	      9.03365895	      1.25697413	     -1.74267790	     -8.78167473	    -14.28588567	     -9.48192329	     11.75367664	      0.90291995	     -1.96050126	      1.88681304	     -1.12837349
      0.05000000	     -1.58726948	     -5.30684973	     -0.41725792	      1.06850406	      1.01184604	      0.17529827	      0.93004086	      3.12967996	     -2.79503296	    -11.72868723	      9.03308716	      1.25847134	     -1.74279228	     -8.78111442	    -14.28834550	     -9.47295557	     11.75367974	      0.90388751	     -1.96623703	      1.89186863	     -1.13234440
      0.06000000	     -1.58259865	     -5.30969838	     -0.42194741	      1.06845235	      1.01186319	      0.17532065	      0.92482055	      3.13281427	     -2.79030846	    -11.72298655	      9.02669985	      1.26920925	     -1.76204183	     -8.78196785	    -14.29901349	     -9.44014777	     11.74481594	      0.91036353	     -1.96637567	      1.90197111	     -1.14791628
      0.07000000	     -1.58184988	     -5.30879600	     -0.42561981	      1.06836028	      1.01187303	      0.17535506	      0.92651665	      3.13288376	     -2.79095542	    -11.71661768	      9.02622665	      1.27075816	     -1.76074611	     -8.78308283	    -14.29936594	     -9.43601622	     11.74303269	      0.91130481	     -1.97212883	      1.90300847	     -1.14750942
      0.08000000	     -1.57876597	     -5.31237383	     -0.43547446	      1.06833192	      1.01189461	      0.17538657	      0.90994857	      3.13736504	     -2.78461921	    -11.68648795	      9.01424565	      1.28620760	     -1.77929573	     -8.78511876	    -14.31181844	     -9.40698915	     11.72163238	      0.92066977	     -1.96730874	      1.91086613	     -1.14437414
      0.09000000	     -1.57752943	     -5.31216982	     -0.44067402	      1.06824628	      1.01190628	      0.17543090	      0.91179803	      3.13929760	     -2.78431069	    -11.68236146	      9.01312376	      1.28766404	     -1.77873696	     -8.78717880	    -14.31212836	     -9.40409383	     11.72041565	      0.92144619	     -1.97221874	      1.90823243	     -1.14546487
      0.10000000	     -1.57688574	     -5.31243489	     -0.44870745	      1.06816974	      1.01191898	      0.17547470	      0.91270713	      3.14111855	     -2.78419859	    -11.67592186	      9.01142305	      1.28944008	     -1.77944338	     -8.78914024	    -14.31350796	     -9.39990315	     11.71821134	      0.92250391	     -1.97445317	      1.90611627	     -1.14690358
      0.11000000	     -1.57696683	     -5.31332057	     -0.45828447	      1.06809705	      1.01193190	      0.17552263	      0.91297962	      3.14389984	     -2.78344752	    -11.66677289	      9.00851646	      1.29187600	     -1.78102206	     -8.79150608	    -14.31694058	     -9.39329028	     11.71443503	      0.92404518	     -1.97490623	      1.90311974	     -1.14783251
      0.12000000	     -1.57927109	     -5.31744669	     -0.47554647	      1.06807910	      1.01195210	      0.17556884	      0.90095484	      3.15005486	     -2.76232474	    -11.63482508	      8.98490284	      1.30679251	     -1.79633107	     -8.79415852	    -14.34731488	     -9.36251506	     11.68719106	      0.93437295	     -1.96037038	      1.90642702	     -1.13543431
      0.13000000	     -1.57765746	     -5.31841882	     -0.48317402	      1.06798140	      1.01196723	      0.17561199	      0.90424364	      3.15263843	     -2.76156056	    -11.63191699	      8.98372281	      1.30787753	     -1.79469253	     -8.79693208	    -14.34772347	     -9.36145852	     11.68610679	      0.93505993	     -1.96663016	      1.90121769	     -1.13639962
      0.14000000	     -1.57572708	     -5.31943560	     -0.49043166	      1.06788671	      1.01198242	      0.17564974	      0.90710934	      3.15467521	     -2.76000714	    -11.62950359	      8.98163535	      1.30918672	     -1.79342083	     -8.79944985	    -14.34991179	     -9.36041629	     11.68426263	      0.93590672	     -1.97140111	      1.89647005	     -1.13717855
      0.15000000	     -1.57387139	     -5.32054833	     -0.49819223	      1.06778549	      1.01199748	      0.17568614	      0.91067524	      3.15649370	     -2.75797987	    -11.62710376	      8.97874437	      1.31067910	     -1.79175022	     -8.80236499	    -14.35374774	     -9.35910992	     11.68185072	      0.93682742	     -1.97680998	      1.89096052	     -1.13850139
      0.16000000	     -1.56756578	     -5.32028736	     -0.53125464	      1.06767986	      1.01203033	      0.17575660	      0.91204070	      3.15804609	     -2.71224304	    -11.62708909	      8.94647856	      1.33040875	     -1.79751448	     -8.80470136	    -14.41937229	     -9.36214019	     11.65491440	      0.95134333	     -1.98782690	      1.88458565	     -1.11032611
      0.17000000	     -1.56553956	     -5.32198000	     -0.53745199	      1.06758379	      1.01204475	      0.17578999	      0.91522400	      3.15988952	     -2.71233290	    -11.62513559	      8.94663356	      1.33081582	     -1.79618243	     -8.80829159	    -14.41966726	     -9.36047702	     11.65526606	      0.95159472	     -1.99111753	      1.87813569	     -1.11352461
      0.18000000	     -1.56331983	     -5.32357084	     -0.54492851	      1.06748452	      1.01205990	      0.17582711	      0.91874353	      3.16261825	     -2.71200098	    -11.62370804	      8.94603695	      1.33138611	     -1.79448768	     -8.81125510	    -14.42100444	     -9.35971102	     11.65498707	      0.95185818	     -1.99505398	      1.87094849	     -1.11809686
      0.19000000	     -1.56065966	     -5.32504386	     -0.55277288	      1.06739010	      1.01207495	      0.17586089	      0.92198987	      3.16493117	     -2.71075467	    -11.62343546	      8.94463364	      1.33211182	     -1.79311168	     -8.81424953	    -14.42365735	     -9.36040348	     11.65395755	      0.95214107	     -1.99820499	      1.86354365	     -1.12394275
      0.20000000	     -1.55517013	     -5.32335448	     -0.56323439	      1.06728554	      1.01209556	      0.17589502	      0.92782502	      3.16397742	     -2.69329471	    -11.63404027	      8.93398555	      1.33616418	     -1.78869023	     -8.81556194	    -14.44905903	     -9.37199341	     11.64483891	      0.95406336	     -2.00525488	      1.85496887	     -1.14377105
      0.21000000	     -1.55302111	     -5.32523661	     -0.57282165	      1.06719725	      1.01210905	      0.17592932	      0.93004871	      3.16679255	     -2.69417612	    -11.63094551	      8.93374976	      1.33668357	     -1.78762365	     -8.81873403	    -14.45024144	     -9.37252326	     11.64419992	      0.95421118	     -2.00618931	      1.84718733	     -1.14660260
      0.22000000	     -1.55121938	     -5.32382123	     -0.59084456	      1.06710182	      1.01212220	      0.17597524	      0.93451303	      3.16696166	     -2.67143042	    -11.63072511	      8.92597033	      1.34190618	     -1.78190434	     -8.82046810	    -14.48570381	     -9.38325862	     11.63472197	      0.95629958	     -2.00691280	      1.83662230	     -1.15328978
      0.23000000	     -1.54795808	     -5.32587988	     -0.60289593	      1.06702439	      1.01213503	      0.17600864	      0.93568964	      3.16985005	     -2.67218849	    -11.62936681	      8.92595701	      1.34228020	     -1.78320870	     -8.82339487	    -14.48515106	     -9.38500138	     11.63463724	      0.95635707	     -2.00488046	      1.82951379	     -1.15687366
      0.24000000	     -1.54444567	     -5.32771022	     -0.61608949	      1.06694081	      1.01214498	      0.17604104	      0.93748923	      3.17249448	     -2.67125399	    -11.62863467	      8.92545680	      1.34271137	     -1.78455829	     -8.82594956	    -14.48601632	     -9.38677497	     11.63437384	      0.95638723	     -2.00396067	      1.82256686	     -1.16234835
      0.25000000	     -1.53760756	     -5.32652337	     -0.63922767	      1.06684913	      1.01215987	      0.17607544	      0.94265378	      3.17166607	     -2.64119801	    -11.64106163	      8.91830331	      1.34491984	     -1.79085296	     -8.82467841	    -14.51199020	     -9.38933026	     11.63211185	      0.95700784	     -2.00740710	      1.81811546	     -1.17731715
      0.26000000	     -1.53463093	     -5.32857647	     -0.65239826	      1.06676153	      1.01216960	      0.17611357	      0.94441004	      3.17532337	     -2.64098389	    -11.63861429	      8.91809761	      1.34525318	     -1.79175669	     -8.82793814	    -14.51332666	     -9.38971356	     11.63182822	      0.95716334	     -2.00748928	      1.80949878	     -1.17946545
      0.27000000	     -1.52570888	     -5.32732691	     -0.70559930	      1.06668712	      1.01219467	      0.17620930	      0.94532800	      3.17735874	     -2.57258261	    -11.64734303	      8.90730614	      1.34790186	     -1.81407992	     -8.82676695	    -14.58643888	     -9.38045174	     11.62237588	      0.96634262	     -2.01195311	      1.79995653	     -1.14065411
      0.28000000	     -1.52253140	     -5.32889067	     -0.71909003	      1.06660606	      1.01220568	      0.17624075	      0.94760316	      3.17968344	     -2.57310546	    -11.64638961	      8.90707797	      1.34800172	     -1.81627051	     -8.82888010	    -14.58616613	     -9.38027538	     11.62226626	      0.96695767	     -2.01139911	      1.79530590	     -1.14636100
      0.29000000	     -1.51896547	     -5.33022044	     -0.73459973	      1.06653440	      1.01221940	      0.17627659	      0.95061182	      3.18217028	     -2.57100437	    -11.64881202	      8.90557516	      1.34816118	     -1.82117277	     -8.83067084	    -14.58857417	     -9.37795842	     11.62131707	      0.96833623	     -2.00920495	      1.79180204	     -1.15381925
